<?xml version="1.0" encoding="utf-8"?>
<!-- Generator: Adobe Illustrator 21.0.2, SVG Export Plug-In . SVG Version: 6.00 Build 0)  -->
<!DOCTYPE svg PUBLIC "-//W3C//DTD SVG 1.1//EN" "http://www.w3.org/Graphics/SVG/1.1/DTD/svg11.dtd">
<svg version="1.1" id="Layer_1" xmlns="http://www.w3.org/2000/svg" xmlns:xlink="http://www.w3.org/1999/xlink" x="0px" y="0px" width="26" height="26"
     viewBox="0 0 26 26" style="enable-background:new 0 0 26 26;" xml:space="preserve">
<style type="text/css">
    .heading_st0{opacity:0.5;fill:#FFFFFF;}
    .heading_st1{opacity:0.3;fill:#FFFFFF;}
    .heading_st2{opacity:0.3;}
    .heading_st3{opacity:0.5;}
    .heading_st4{fill:#FFFFFF;}
</style>
<g>
    <path class="heading_st0" d="M13,0C5.8,0,0,5.8,0,13c0,7.2,5.8,13,13,13s13-5.8,13-13C26,5.8,20.2,0,13,0z M13,24.5
        C6.6,24.5,1.5,19.4,1.5,13C1.5,6.6,6.6,1.5,13,1.5S24.5,6.6,24.5,13C24.5,19.4,19.4,24.5,13,24.5z"/>
    <circle class="heading_st1" cx="13" cy="13" r="11.5"/>
    <circle class="heading_st2" cx="13" cy="13" r="11.5"/>
    <g class="heading_st3">
        <path class="heading_st1" d="M13,3C7.5,3,3,7.5,3,13h10V3z"/>
        <path class="heading_st4" d="M3,13"/>
        <path class="heading_st4" d="M13,13H3"/>
        <path class="heading_st4" d="M13,3"/>
        <path class="heading_st4" d="M13,3v10"/>
    </g>
</g>
</svg>
